<?xml version="1.0" standalone="no"?>
<!DOCTYPE svg PUBLIC "-//W3C//DTD SVG 20010904//EN"
 "http://www.w3.org/TR/2001/REC-SVG-20010904/DTD/svg10.dtd">
<svg version="1.0" xmlns="http://www.w3.org/2000/svg"
 width="2000.000000pt" height="1500.000000pt" viewBox="0 0 2000.000000 1500.000000"
 preserveAspectRatio="xMidYMid meet">

<g transform="translate(0.000000,1500.000000) scale(0.100000,-0.100000)"
fill="#000000" stroke="none">
<path d="M5823 6525 c-91 -20 -179 -70 -253 -145 -114 -114 -155 -232 -148
-420 6 -136 25 -199 89 -290 43 -61 129 -134 204 -172 22 -12 134 -59 249
-105 241 -96 326 -147 385 -230 50 -70 64 -130 60 -263 -3 -86 -8 -113 -27
-150 -35 -67 -106 -135 -176 -166 -53 -24 -76 -28 -183 -32 -104 -4 -132 -1
-190 17 -163 51 -253 177 -253 358 0 84 9 79 -110 60 l-75 -12 -3 -69 c-6
-140 40 -255 146 -368 73 -77 185 -140 281 -158 82 -15 306 -12 380 5 203 48
370 228 402 435 19 124 -1 293 -46 380 -77 151 -187 228 -527 366 -185 75
-258 116 -321 179 -74 74 -91 121 -92 250 0 100 2 115 28 166 30 63 93 126
155 158 57 29 170 44 268 36 104 -8 182 -44 242 -109 61 -66 84 -124 91 -226
l6 -86 93 14 92 14 0 67 c0 133 -50 250 -150 352 -75 76 -159 124 -259 145
-83 17 -276 17 -358 -1z"/>
<path d="M10760 5455 l0 -1055 90 0 90 0 0 1055 0 1055 -90 0 -90 0 0 -1055z"/>
<path d="M12110 6390 l0 -120 110 0 111 0 -3 118 -3 117 -107 3 -108 3 0 -121z"/>
<path d="M13156 6499 c-105 -25 -219 -117 -265 -213 -32 -70 -40 -121 -41
-253 l0 -123 -135 0 -135 0 0 -90 0 -90 135 0 135 0 0 -665 0 -665 90 0 90 0
0 665 0 665 175 0 175 0 0 90 0 90 -176 0 -176 0 4 133 c4 139 13 172 62 225
41 46 75 56 201 62 l120 5 0 85 0 85 -110 2 c-60 1 -127 -3 -149 -8z"/>
<path d="M7235 6289 c-22 -4 -61 -10 -87 -13 l-48 -7 0 -180 0 -179 -135 0
-135 0 0 -90 0 -90 135 0 134 0 3 -512 3 -513 31 -66 c37 -78 87 -136 152
-177 73 -47 140 -62 269 -62 l113 0 0 84 0 83 -112 5 c-148 6 -203 33 -251
123 -22 39 -22 50 -25 538 l-3 497 196 0 196 0 -3 88 -3 87 -192 3 -193 2 -2
193 -3 193 -40 -7z"/>
<path d="M8367 5930 c-136 -22 -267 -124 -330 -257 l-32 -68 0 -455 0 -455 34
-70 c60 -122 175 -215 302 -244 57 -13 261 -13 318 0 125 28 244 125 302 244
l34 70 0 455 0 455 -32 67 c-54 115 -147 200 -262 239 -66 23 -244 33 -334 19z
m282 -185 c61 -21 104 -58 137 -117 l29 -53 3 -404 c3 -450 2 -463 -63 -539
-54 -63 -110 -85 -230 -90 -164 -7 -250 30 -313 136 l-27 47 -3 405 c-2 284 0
417 8 444 24 81 81 140 165 173 45 17 243 16 294 -2z"/>
<path d="M9735 5929 c-177 -26 -330 -176 -365 -358 -14 -75 -13 -775 1 -843
17 -80 55 -153 114 -216 97 -105 197 -142 386 -142 88 0 133 5 180 20 191 59
318 229 319 426 l0 61 -77 11 c-43 7 -83 12 -89 12 -7 0 -13 -32 -16 -83 -8
-122 -49 -192 -139 -241 -46 -26 -66 -30 -154 -34 -142 -6 -203 12 -270 81
-31 32 -55 68 -63 93 -9 30 -12 154 -12 445 0 369 2 407 19 444 27 60 66 101
123 129 47 24 63 26 172 26 106 0 127 -3 171 -24 56 -25 110 -81 132 -135 9
-20 18 -73 21 -119 4 -69 7 -82 21 -78 9 3 36 7 61 11 106 15 100 10 100 74 0
72 -24 163 -57 221 -107 182 -307 258 -578 219z"/>
<path d="M11291 5539 c-166 -204 -304 -377 -306 -383 -2 -6 132 -177 299 -381
l302 -370 117 -3 c64 -1 117 0 117 3 0 3 -140 173 -310 377 l-310 370 39 47
c21 25 160 192 310 371 149 179 271 328 271 332 0 5 -51 8 -113 8 l-113 0
-303 -371z"/>
<path d="M12130 5155 l0 -755 90 0 90 0 0 755 0 755 -90 0 -90 0 0 -755z"/>
<path d="M13448 5905 c-2 -3 105 -313 238 -690 l244 -685 -130 -356 c-72 -196
-130 -360 -130 -365 0 -6 36 -9 86 -7 l87 3 372 1031 c205 567 376 1041 380
1053 6 21 5 22 -85 19 l-92 -3 -189 -550 c-104 -302 -193 -564 -197 -582 -6
-26 -35 52 -201 535 -107 312 -198 575 -203 585 -7 14 -23 17 -92 17 -45 0
-85 -2 -88 -5z"/>
<path d="M9512 2868 l3 -283 62 -3 61 -3 4 143 c3 122 6 148 24 178 44 76 118
63 143 -25 17 -60 3 -187 -31 -291 -18 -56 -19 -67 -7 -75 24 -15 36 -10 67
29 91 115 127 295 78 390 -44 85 -171 109 -246 46 l-30 -26 0 101 0 101 -65 0
-65 0 2 -282z"/>
<path d="M10770 3075 l0 -75 -40 0 c-36 0 -40 -2 -40 -25 0 -22 4 -25 40 -25
l40 0 0 -185 0 -185 60 0 60 0 0 185 0 185 66 0 c62 0 65 1 62 23 -3 20 -9 22
-65 25 l-63 3 0 74 0 75 -60 0 -60 0 0 -75z"/>
<path d="M12020 2865 l0 -285 60 0 60 0 0 69 c0 61 3 72 22 85 12 9 26 16 30
16 4 0 28 -38 53 -85 l47 -85 64 0 c35 0 64 4 64 8 0 5 -29 62 -65 128 l-64
119 38 40 c41 44 91 108 91 118 0 4 -17 7 -38 7 -34 0 -41 -5 -90 -70 -30 -38
-76 -88 -103 -111 l-49 -41 0 186 0 186 -60 0 -60 0 0 -285z"/>
<path d="M7269 3100 c-70 -21 -109 -75 -109 -150 0 -84 56 -130 205 -170 54
-14 87 -29 103 -46 28 -32 28 -39 -3 -69 -19 -20 -34 -25 -75 -25 -62 0 -98
18 -139 67 l-31 37 -35 -34 -35 -34 23 -24 c12 -13 45 -36 72 -50 42 -21 64
-26 135 -26 149 -1 220 51 220 161 0 91 -57 134 -236 179 -77 20 -104 48 -86
90 22 46 112 59 170 24 18 -11 42 -36 54 -56 l21 -36 36 37 36 36 -42 38 c-23
21 -59 43 -81 49 -44 13 -163 15 -203 2z"/>
<path d="M10300 3088 c-55 -29 -81 -64 -87 -120 -10 -90 34 -134 181 -179 120
-37 146 -52 146 -82 0 -48 -23 -62 -97 -62 -57 0 -73 4 -101 25 -19 14 -41 38
-49 54 l-15 28 -39 -38 -39 -38 22 -23 c12 -13 47 -36 77 -51 47 -23 69 -27
136 -27 99 1 145 16 184 60 46 53 52 125 15 182 -20 31 -95 68 -188 92 -84 21
-116 42 -116 75 0 29 11 43 43 55 68 26 138 0 183 -66 l21 -32 37 38 37 38
-33 28 c-57 49 -105 65 -193 65 -64 0 -90 -5 -125 -22z"/>
<path d="M7773 2986 c-156 -73 -158 -307 -2 -386 76 -39 200 -21 262 37 32 32
34 49 6 58 -16 5 -27 0 -43 -18 -50 -59 -121 -64 -172 -13 -19 19 -34 42 -34
53 0 16 8 18 82 15 71 -3 90 0 128 20 59 30 86 78 76 133 -20 105 -179 158
-303 101z m178 -55 c31 -25 34 -98 6 -129 -22 -25 -82 -36 -137 -27 -32 5 -40
11 -40 28 0 41 22 100 45 123 30 30 92 33 126 5z"/>
<path d="M8240 2988 c-68 -35 -101 -90 -108 -177 -4 -62 -1 -77 22 -126 37
-74 88 -105 174 -105 50 0 66 4 91 26 l31 26 0 -26 c0 -25 2 -26 60 -26 l60 0
0 210 0 210 -24 0 c-18 0 -31 -10 -47 -40 -13 -22 -26 -40 -29 -40 -4 0 -12
11 -19 24 -18 33 -82 66 -128 66 -21 0 -59 -10 -83 -22z m151 -48 c32 -18 51
-68 51 -139 0 -108 -30 -161 -92 -161 -49 0 -77 31 -90 99 -27 141 43 248 131
201z"/>
<path d="M8843 2994 c-18 -9 -43 -32 -55 -52 l-21 -35 -24 47 c-18 36 -29 46
-48 46 l-25 0 0 -210 0 -210 59 0 58 0 5 143 c5 160 20 212 61 222 36 9 62 -8
84 -56 l20 -42 32 56 c18 31 29 62 25 68 -10 17 -70 39 -106 39 -18 0 -48 -8
-65 -16z"/>
<path d="M9176 2995 c-47 -17 -91 -57 -118 -109 -16 -31 -19 -53 -16 -107 4
-83 39 -140 107 -176 87 -45 217 -25 270 43 27 34 26 42 -2 49 -18 5 -32 -2
-59 -29 -72 -72 -165 -37 -189 69 -22 101 18 201 89 218 37 9 89 -11 115 -44
19 -24 29 -30 46 -24 28 8 27 26 -4 59 -55 59 -156 81 -239 51z"/>
<path d="M11177 2996 c-91 -33 -147 -110 -147 -204 0 -65 10 -91 55 -141 49
-54 106 -74 193 -69 81 4 136 34 177 97 114 171 -77 388 -278 317z m140 -58
c40 -32 58 -167 32 -235 -28 -75 -106 -99 -154 -47 -63 68 -53 238 17 289 26
18 79 15 105 -7z"/>
<path d="M11675 2996 c-115 -43 -167 -187 -110 -303 35 -70 88 -106 165 -111
86 -6 126 4 171 45 44 40 49 59 18 68 -16 5 -27 0 -43 -18 -63 -74 -167 -59
-196 29 -18 54 -9 167 16 201 44 59 125 60 177 3 21 -24 32 -29 52 -24 24 6
24 7 9 35 -37 72 -166 109 -259 75z"/>
<path d="M12585 3003 c-77 -19 -118 -65 -118 -136 0 -57 31 -83 133 -113 112
-33 134 -45 138 -74 5 -31 -21 -50 -71 -50 -45 0 -71 12 -112 51 l-30 28 -33
-30 c-32 -29 -33 -31 -15 -45 51 -39 100 -54 174 -54 125 1 189 46 189 134 0
67 -42 96 -198 136 -84 21 -103 78 -35 101 48 16 104 -2 136 -42 l24 -31 34
31 34 31 -25 20 c-48 38 -157 59 -225 43z"/>
</g>
</svg>
